<svg width="70" height="70" viewBox="0 0 70 70" fill="none" xmlns="http://www.w3.org/2000/svg">
<circle cx="35" cy="35" r="35" fill="url(#paint0_linear_2391_753)"/>
<g filter="url(#filter0_d_2391_753)">
<path d="M46.4333 34.0408L28.6556 24.1408C28.3111 23.9494 27.8911 23.9538 27.5511 24.1496C27.2089 24.3476 27 24.7084 27 25.1V44.9C27 45.2916 27.2089 45.6524 27.5511 45.8504C27.7244 45.9494 27.9178 46 28.1111 46C28.2978 46 28.4867 45.9538 28.6556 45.8592L46.4333 35.9592C46.7822 35.7634 47 35.3982 47 35C47 34.6018 46.7822 34.2366 46.4333 34.0408Z" fill="white"/>
</g>
<defs>
<filter id="filter0_d_2391_753" x="23" y="24" width="28" height="30" filterUnits="userSpaceOnUse" color-interpolation-filters="sRGB">
<feFlood flood-opacity="0" result="BackgroundImageFix"/>
<feColorMatrix in="SourceAlpha" type="matrix" values="0 0 0 0 0 0 0 0 0 0 0 0 0 0 0 0 0 0 127 0" result="hardAlpha"/>
<feOffset dy="4"/>
<feGaussianBlur stdDeviation="2"/>
<feComposite in2="hardAlpha" operator="out"/>
<feColorMatrix type="matrix" values="0 0 0 0 0 0 0 0 0 0 0 0 0 0 0 0 0 0 0.25 0"/>
<feBlend mode="normal" in2="BackgroundImageFix" result="effect1_dropShadow_2391_753"/>
<feBlend mode="normal" in="SourceGraphic" in2="effect1_dropShadow_2391_753" result="shape"/>
</filter>
<linearGradient id="paint0_linear_2391_753" x1="35" y1="0" x2="35" y2="70" gradientUnits="userSpaceOnUse">
<stop stop-color="#5C7EFF"/>
<stop offset="1" stop-color="#19234A"/>
</linearGradient>
</defs>
</svg>
