<svg width="171" height="38" viewBox="0 0 171 38" fill="none" xmlns="http://www.w3.org/2000/svg">
<path d="M0 7H42C48.6274 7 54 12.3726 54 19V19C54 25.6274 48.6274 31 42 31H0V7Z" fill="url(#paint0_linear_2361_796)"/>
<path d="M107.14 19.8033L113.406 25.9652C115.069 27.5886 117.317 28.4997 119.661 28.4997C122.004 28.4997 124.252 27.5886 125.915 25.9652C127.571 24.3327 128.501 22.1212 128.5 19.8157C128.5 17.5102 127.569 15.2991 125.913 13.6673C124.256 12.0356 122.009 11.1164 119.665 11.1116C117.32 11.1067 115.069 12.0165 113.406 13.6414L107.14 19.8033ZM107.14 19.8033L100.873 25.9652C99.21 27.5886 96.9617 28.4997 94.6184 28.4997C92.275 28.4997 90.0267 27.5886 88.3637 25.9652C87.5377 25.1582 86.8816 24.1989 86.4331 23.1423C85.9846 22.0856 85.7525 20.9524 85.75 19.8074C85.7476 18.6624 85.9748 17.5282 86.4188 16.4697C86.8628 15.4112 87.5147 14.4492 88.3373 13.6388C89.1599 12.8284 90.137 12.1855 91.2126 11.7469C92.2882 11.3084 93.4413 11.0828 94.6057 11.083C95.7701 11.0833 96.9231 11.3094 97.9985 11.7484C99.074 12.1874 100.051 12.8307 100.873 13.6414L107.14 19.8033Z" stroke="white" stroke-width="3.16667" stroke-linecap="round" stroke-linejoin="round"/>
<path d="M64.3085 30H72.7445C77.048 30 79.5275 27.9195 79.5275 24.357C79.5275 21.9345 78.416 20.2815 76.2215 19.569C78.188 18.7425 79.214 17.0895 79.214 14.781C79.214 11.304 76.706 9.1665 72.602 9.1665H64.3085V30ZM72.2885 12.387C74.3405 12.387 75.4805 13.356 75.4805 15.1515C75.4805 17.004 74.369 18.0585 72.374 18.0585H67.9565V12.387H72.2885ZM72.602 21.1365C74.6255 21.1365 75.794 22.134 75.794 23.901C75.794 25.782 74.654 26.7795 72.602 26.7795H67.9565V21.1365H72.602Z" fill="white"/>
<path d="M135.027 30H143.463C147.767 30 150.246 27.9195 150.246 24.357C150.246 21.9345 149.135 20.2815 146.94 19.569C148.907 18.7425 149.933 17.0895 149.933 14.781C149.933 11.304 147.425 9.1665 143.321 9.1665H135.027V30ZM143.007 12.387C145.059 12.387 146.199 13.356 146.199 15.1515C146.199 17.004 145.088 18.0585 143.093 18.0585H138.675V12.387H143.007ZM143.321 21.1365C145.344 21.1365 146.513 22.134 146.513 23.901C146.513 25.782 145.373 26.7795 143.321 26.7795H138.675V21.1365H143.321ZM157.828 21.792V30H161.476V21.792L168.487 9.1665H164.525L160.45 16.7475C160.079 17.4315 159.965 17.7735 159.709 18.2865C159.481 17.7735 159.281 17.3175 158.968 16.7475L154.864 9.1665H150.788L157.828 21.792Z" fill="white"/>
<defs>
<linearGradient id="paint0_linear_2361_796" x1="27" y1="7" x2="27" y2="31" gradientUnits="userSpaceOnUse">
<stop stop-color="#5C7EFF"/>
<stop offset="1" stop-color="#19234A"/>
</linearGradient>
</defs>
</svg>
